Coordinates
version=1
nRows=8
nColumns=40
inDegrees=yes

Units are S.I. units (second, meters, Newtons, ...)
Angles are in degrees.

endheader
time	pelvis_tilt	pelvis_list	pelvis_rotation	pelvis_tx	pelvis_ty	pelvis_tz	hip_flexion_r	hip_adduction_r	hip_rotation_r	knee_angle_r	knee_angle_r_beta	ankle_angle_r	subtalar_angle_r	mtp_angle_r	hip_flexion_l	hip_adduction_l	hip_rotation_l	knee_angle_l	knee_angle_l_beta	ankle_angle_l	subtalar_angle_l	mtp_angle_l	lumbar_extension	lumbar_bending	lumbar_rotation	arm_flex_r	arm_add_r	arm_rot_r	elbow_flex_r	pro_sup_r	wrist_flex_r	wrist_dev_r	arm_flex_l	arm_add_l	arm_rot_l	elbow_flex_l	pro_sup_l	wrist_flex_l	wrist_dev_l
     45.46500000	     -3.88671804	     -3.42382556	     -8.88298061	      0.88909604	      0.92749153	      0.53836781	     17.08970413	      2.33822996	     -5.89007342	     21.69628908	     21.69628908	     10.55177885	     -0.52070155	     -4.30143487	      4.40884600	     -9.41523450	    -10.62430759	     28.55192029	     28.55192029	     17.75496507	    -13.09663309	      2.07264777	     -7.94314229	      6.56047177	      1.21549337	    -11.95461140	    -12.25063679	    -13.20791797	     27.78880668	     45.84025039	      0.00000000	      0.00000000	     32.57496034	    -18.84505847	    -15.03724246	     79.07211711	     48.00212644	      0.00000000	      0.00000000
     45.48342857	     -3.79646733	     -3.51473699	     -8.32066787	      0.88816910	      0.92814107	      0.54227544	     16.34503614	      2.56959651	     -6.43987964	     21.22298165	     21.22298165	     10.78829179	     -0.38427596	     -4.30300023	      5.93751931	    -10.16715312	     -9.76954810	     31.83845219	     31.83845219	     16.63723961	    -13.86835479	      1.22864567	     -8.00680650	      6.60255435	      1.20601480	    -11.53557381	    -12.37294215	    -13.08787314	     27.83131422	     45.83787831	      0.00000000	      0.00000000	     31.88937899	    -18.15052018	    -14.83947941	     78.83830724	     47.98105709	      0.00000000	      0.00000000
     45.50185714	     -3.73350248	     -3.61857843	     -7.72885318	      0.88701943	      0.92864773	      0.54603748	     15.66790844	      2.82001105	     -7.01843272	     20.78094828	     20.78094828	     10.99343291	     -0.29402240	     -4.32611587	      7.68911190	    -10.91270462	     -8.78335257	     35.33856232	     35.33856232	     15.21969801	    -14.70390443	      0.37510422	     -8.08420000	      6.61704352	      1.20684248	    -11.09353409	    -12.51494674	    -12.95755978	     27.82494467	     45.83732849	      0.00000000	      0.00000000	     31.05771294	    -17.40212588	    -14.57230947	     78.51604748	     47.95272444	      0.00000000	      0.00000000
     45.52028571	     -3.63601791	     -3.69831836	     -7.11702345	      0.88577668	      0.92900078	      0.54942183	     15.00903010	      3.02780605	     -7.54499127	     20.41847990	     20.41847990	     11.23457575	     -0.29247919	     -4.38596063	      9.56996962	    -11.54849227	     -7.68767540	     39.01389798	     39.01389798	     13.57971068	    -15.62969635	     -0.41234979	     -8.16537211	      6.71929408	      1.21836939	    -10.55274421	    -12.64194615	    -12.81288873	     27.78615633	     45.83820767	      0.00000000	      0.00000000	     30.09820075	    -16.62075563	    -14.22301222	     78.09145993	     47.91611898	      0.00000000	      0.00000000
     45.53871429	     -3.56416429	     -3.75076603	     -6.49490804	      0.88437227	      0.92910703	      0.55266599	     14.48000172	      3.22780426	     -7.95389650	     20.18766119	     20.18766119	     11.33589587	     -0.58877564	     -4.82365317	     11.47012630	    -12.09582851	     -6.57897008	     42.45573739	     42.45573739	     10.82698525	    -17.00911376	     -3.24196710	     -8.15510252	      6.70489487	      1.11741183	     -9.48102059	    -12.86373476	    -11.80347578	     26.52605285	     45.86931735	      0.00000000	      0.00000000	     29.01505711	    -16.06792482	    -13.48013487	     77.05238871	     47.84969806	      0.00000000	      0.00000000
     45.55714286	     -3.39610729	     -3.90218286	     -5.85262991	      0.88292882	      0.92916994	      0.55570474	     13.88894602	      3.50686701	     -8.41669033	     20.06109774	     20.06109774	     11.60636935	     -0.80822135	     -4.85329927	     13.41559401	    -12.68059847	     -5.43534780	     46.12321698	     46.12321698	      9.19651052	    -17.64996413	     -3.15204895	     -8.37256717	      6.79581613	      1.13138299	     -8.80963476	    -12.99635698	    -11.74192646	     26.66112041	     45.87046570	      0.00000000	      0.00000000	     27.77520007	    -15.20349584	    -13.06965032	     76.53014863	     47.80506157	      0.00000000	      0.00000000
     45.57557143	     -3.30254208	     -3.90932373	     -5.21316750	      0.88129383	      0.92893570	      0.55847509	     13.56123546	      3.66874822	     -8.58257261	     20.19299719	     20.19299719	     11.88327274	     -1.57101306	     -4.84675140	     15.56599203	    -12.93685678	     -4.16777081	     49.85629909	     49.85629909	      8.67426565	    -17.90561631	      0.15130266	     -8.42624182	      6.74120382	      1.03883500	     -7.64214373	    -13.11525086	    -11.25952547	     25.85045126	     45.92291228	      0.00000000	      0.00000000	     26.47826802	    -14.66584413	    -12.09544808	     75.06065481	     47.71220439	      0.00000000	      0.00000000
     45.59400000	     -3.03663773	     -4.02805371	     -4.55694156	      0.87972548	      0.92868654	      0.56109243	     13.07861947	      3.88765059	     -8.97437321	     20.42153617	     20.42153617	     12.25217312	     -2.01664109	     -4.92089506	     17.31988329	    -13.32152158	     -3.15637867	     53.00180122	     53.00180122	      7.22480444	    -18.36923553	      0.65135038	     -8.76328982	      6.79060603	      1.00932227	     -6.70564290	    -13.23980237	    -11.23419902	     26.09212195	     45.92423880	      0.00000000	      0.00000000	     24.95363020	    -13.76450468	    -11.59831255	     74.16645559	     47.65297043	      0.00000000	      0.00000000
